
        <svg xmlns="http://www.w3.org/2000/svg" xmlns:xlink="http://www.w3.org/1999/xlink" version="1.1" width="3177.2815078436997" 
        height="466.5574724148226" viewBox="0 0 3177.2815078436997 466.5574724148226">
			
			<g transform="scale(8.864075392184978) translate(10, 10)">
				<defs id="SvgjsDefs3127"><linearGradient id="SvgjsLinearGradient3136"><stop id="SvgjsStop3137" stop-color="#8f5e25" offset="0"></stop><stop id="SvgjsStop3138" stop-color="#fbf4a1" offset="0.5"></stop><stop id="SvgjsStop3139" stop-color="#8f5e25" offset="1"></stop></linearGradient><linearGradient id="SvgjsLinearGradient3140"><stop id="SvgjsStop3141" stop-color="#8f5e25" offset="0"></stop><stop id="SvgjsStop3142" stop-color="#fbf4a1" offset="0.5"></stop><stop id="SvgjsStop3143" stop-color="#8f5e25" offset="1"></stop></linearGradient><linearGradient id="SvgjsLinearGradient3144"><stop id="SvgjsStop3145" stop-color="#8f5e25" offset="0"></stop><stop id="SvgjsStop3146" stop-color="#fbf4a1" offset="0.5"></stop><stop id="SvgjsStop3147" stop-color="#8f5e25" offset="1"></stop></linearGradient></defs><g id="SvgjsG3128" featureKey="Ez5wPW-0" transform="matrix(6.9081150064995045,0,0,6.9081150064995045,-4.8695300381570945,-0.1972600203822843)" fill="#f9cc0a"><title xmlns="http://www.w3.org/2000/svg">abstract</title><path xmlns="http://www.w3.org/2000/svg" d="M3.93809,2.38489c.00887.11375-.02321.14445-.11653.12941a.58238.58238,0,0,1-.06905.0892.08164.08164,0,0,1-.114-.09591c.01257-.051.05209-.06833.13009-.05481A.32469.32469,0,0,1,3.779,2.41.3666.3666,0,0,1,3.80043,2.369l-.0021-.0083c-.03248-.0303-.05483-.06361-.03216-.10976a.09213.09213,0,0,1,.10646-.04516c.06429.00693.12848.0147.19264.02276a.15217.15217,0,0,1,.03566.00932.0825.0825,0,0,1-.03648.16065c-.02145-.0017-.04265-.00626-.06406-.00865C3.98085,2.38771,3.96117,2.38669,3.93809,2.38489Z"></path><path xmlns="http://www.w3.org/2000/svg" d="M3.04423,2.27006c-.06965-.00112-.11165-.04592-.09545-.09378.02853-.08429.0664-.16545.10118-.24757a.04495.04495,0,0,1,.01919-.01948A.04051.04051,0,0,0,3.092,1.85717a.07907.07907,0,0,1,.05582-.09383.08615.08615,0,0,1,.09936.03978.08292.08292,0,0,1-.02989.10943.04213.04213,0,0,0-.023.0524.06716.06716,0,0,1-.0035.03628c-.02731.07038-.05227.14206-.08575.20946C3.0912,2.2386,3.05819,2.257,3.04423,2.27006Z"></path><path xmlns="http://www.w3.org/2000/svg" d="M3.74107,1.864a.09148.09148,0,0,1-.09015-.05775.06826.06826,0,0,0-.04034-.03206.08584.08584,0,0,1-.07514-.08566.081.081,0,0,1,.06938-.08c.044-.00765.07421.01356.09582.06028a.05094.05094,0,0,0,.03839.02408c.05682-.00052.11357-.00627.17041-.00878a.082.082,0,0,1,.09384.069.08006.08006,0,0,1-.07335.09418C3.86624,1.85671,3.80146,1.85893,3.74107,1.864Z"></path><path xmlns="http://www.w3.org/2000/svg" d="M3.41469,3.33325c-.03114-.03283-.06069-.0601-.08555-.09113a.089.089,0,0,1,.00377-.1252c.03482-.03068.08061-.02278.12319.01659a1.02225,1.02225,0,0,0,.10723.08706.086.086,0,0,1,.01215.15162.06592.06592,0,0,0-.01858.03451.08214.08214,0,0,1-.06455.07547.07871.07871,0,0,1-.08619-.03077.08075.08075,0,0,1,.00092-.10277Z"></path><path xmlns="http://www.w3.org/2000/svg" d="M2.14336.82741a.08781.08781,0,0,1,.081.07561c.01084.048.01677.09716.029.14475a.1012.1012,0,0,0,.03246.05055A.0843.0843,0,0,1,2.32,1.19967a.07777.07777,0,0,1-.08294.05394.081.081,0,0,1-.07936-.07093A.0568.0568,0,0,0,2.142,1.15162c-.08809-.06876-.07933-.16825-.07941-.262C2.06251.84826,2.10115.83,2.14336.82741Z"></path><path xmlns="http://www.w3.org/2000/svg" d="M3.21989,3.75632c-.019.02161-.03454.05432-.05807.06183a.1266.1266,0,0,1-.0884-.01331.1534.1534,0,0,1-.05125-.06344,1.69417,1.69417,0,0,1-.08344-.169.07926.07926,0,0,1,.03761-.10616.08113.08113,0,0,1,.10979.03779c.01151.018.01956.03825.03008.057.02328.04143.04769.08223.07052.1239C3.19756,3.7046,3.20584,3.72575,3.21989,3.75632Z"></path><path xmlns="http://www.w3.org/2000/svg" d="M3.87673,2.80355c-.00134.072-.0524.11373-.10723.096a1.22856,1.22856,0,0,1-.19013-.08134.07819.07819,0,0,1-.03683-.10654.08365.08365,0,0,1,.114-.03915,1.48244,1.48244,0,0,1,.16874.07405A.20206.20206,0,0,1,3.87673,2.80355Z"></path><path xmlns="http://www.w3.org/2000/svg" d="M2.32244,3.564c.00729-.04164.012-.08458.02283-.12589a.07338.07338,0,0,1,.0849-.05561.07164.07164,0,0,1,.0714.07177c.00226.07043.00171.14119-.00269.2115a.08.08,0,0,1-.15415.01757A.81561.81561,0,0,1,2.32244,3.564Z"></path><path xmlns="http://www.w3.org/2000/svg" d="M1.93229,4.06809c.00648-.03109.01706-.08542.02955-.13929A.14866.14866,0,0,1,1.98116,3.887a.08079.08079,0,0,1,.099-.03782.07974.07974,0,0,1,.05069.09315q-.01536.08864-.03411.17669a.08377.08377,0,0,1-.09625.07272C1.95546,4.18467,1.92927,4.14685,1.93229,4.06809Z"></path><path xmlns="http://www.w3.org/2000/svg" d="M1.46327,2.74936a.29089.29089,0,0,1-.03963.054c-.04146.03851-.08647.07319-.12972.10979a.07834.07834,0,0,1-.09438.01112.07282.07282,0,0,1-.0393-.08581.14731.14731,0,0,1,.04-.07031.98636.98636,0,0,1,.14141-.10285C1.39828,2.6319,1.4647,2.672,1.46327,2.74936Z"></path><path xmlns="http://www.w3.org/2000/svg" d="M1.65772,1.18092c-.00174.07453-.06975.11625-.12022.08312a.35307.35307,0,0,1-.14063-.167A.08428.08428,0,0,1,1.43373.98916a.0876.0876,0,0,1,.10963.03195c.02727.03519.05688.06862.08313.10453A.43149.43149,0,0,1,1.65772,1.18092Z"></path><path xmlns="http://www.w3.org/2000/svg" d="M3.29272,2.60068c-.05924.059-.10941.067-.14735.02558a.08346.08346,0,0,1,.00494-.11976c.04272-.03769.09216-.02523.14323.0361.0629-.0578.11058-.065.14855-.02249a.086.086,0,0,1-.00837.12013C3.39131,2.67622,3.34194,2.663,3.29272,2.60068Z"></path><path xmlns="http://www.w3.org/2000/svg" d="M1.09668,1.42182c.03248.00725.07982.01513.12546.02872a.08257.08257,0,1,1-.03863.16055c-.04265-.00611-.08519-.014-.12708-.024a.08551.08551,0,0,1-.07383-.09618C.989,1.44673,1.02886,1.41875,1.09668,1.42182Z"></path><path xmlns="http://www.w3.org/2000/svg" d="M2.61472,1.59283c-.01166.07891-.04288.11384-.09631.10776a.08639.08639,0,0,1-.07507-.09441c.00839-.05735.04868-.07784.12208-.06845a.70463.70463,0,0,1,.067-.09494c.01026-.0106.03835-.00967.05653-.00572a.08152.08152,0,0,1,.05987.09951C2.7366,1.58883,2.69863,1.60476,2.61472,1.59283Z"></path><path xmlns="http://www.w3.org/2000/svg" d="M2.97015,1.61331c-.068-.04553-.08522-.09539-.05058-.14091a.0856.0856,0,0,1,.12333-.01163.088.088,0,0,1-.01242.13653.4952.4952,0,0,1,.05665.09311.08284.08284,0,0,1-.01953.06258.07922.07922,0,0,1-.11531.00645C2.90884,1.71961,2.91387,1.67175,2.97015,1.61331Z"></path><path xmlns="http://www.w3.org/2000/svg" d="M2.91718,1.24228c.08313.01114.11474.03659.11294.09094a.0799.0799,0,0,1-.07426.07945c-.05317.0051-.082-.02265-.09642-.09265-.09129-.01868-.1183-.04069-.11568-.09425a.08144.08144,0,0,1,.07171-.07729C2.86755,1.14227,2.89454,1.16716,2.91718,1.24228Z"></path><path xmlns="http://www.w3.org/2000/svg" d="M1.6833,3.42259a1.59342,1.59342,0,0,1,.07536-.16021.07264.07264,0,0,1,.09845-.02505.08072.08072,0,0,1,.04111.10178c-.01275.04237-.02639.08447-.04022.1265a.08255.08255,0,0,1-.09364.05762A.08607.08607,0,0,1,1.6952,3.428Z"></path><path xmlns="http://www.w3.org/2000/svg" d="M2.87425,2.43477a.18164.18164,0,0,1-.04058.0528,1.00022,1.00022,0,0,1-.13721.07587A.07721.07721,0,0,1,2.624,2.42708a1.12393,1.12393,0,0,1,.14827-.075C2.82263,2.33172,2.87293,2.368,2.87425,2.43477Z"></path><path xmlns="http://www.w3.org/2000/svg" d="M3.37115,2.234a.205.205,0,0,0,.0313-.02086.08714.08714,0,0,1,.11-.01345.07994.07994,0,0,1,.03144.098.08294.08294,0,0,1-.09164.05479.07175.07175,0,0,0-.046.0166.089.089,0,0,1-.10944.01891.08056.08056,0,0,1-.03809-.09554C3.26937,2.2517,3.30622,2.23017,3.37115,2.234Z"></path><path xmlns="http://www.w3.org/2000/svg" d="M3.5805,1.33689c-.06282-.00074-.10935-.0632-.07877-.10968a.56527.56527,0,0,1,.13-.13115.06158.06158,0,0,1,.0888.02249.10522.10522,0,0,1,.01015.08757.785.785,0,0,1-.118.12042C3.60371,1.33484,3.58713,1.33493,3.5805,1.33689Z"></path><path xmlns="http://www.w3.org/2000/svg" d="M1.06915,2.14389a.10312.10312,0,0,1,.08371.06891.07073.07073,0,0,1-.03836.08947.81049.81049,0,0,1-.13857.04868.07989.07989,0,0,1-.06456-.13889A1.27427,1.27427,0,0,1,1.06915,2.14389Z"></path><path xmlns="http://www.w3.org/2000/svg" d="M.7049,2.684c.01313-.05953.104-.1628.15611-.16419a.09667.09667,0,0,1,.07392.03117.09572.09572,0,0,1,.00415.08364.39185.39185,0,0,1-.095.11047.09586.09586,0,0,1-.08374.00784C.73637,2.74178.72294,2.70789.7049,2.684Z"></path><path xmlns="http://www.w3.org/2000/svg" d="M2.75019,3.06664a.09475.09475,0,0,1-.08-.05888.084.084,0,0,1,.01925-.09353.57079.57079,0,0,1,.04383-.05629c.022-.0185.0499-.04347.07411-.04228a.102.102,0,0,1,.07384.04737.1169.1169,0,0,1-.01023.08451.25469.25469,0,0,1-.056.07526A.39952.39952,0,0,1,2.75019,3.06664Z"></path><path xmlns="http://www.w3.org/2000/svg" d="M3.82264,3.67594c.00061.0666-.06.11309-.10894.08576a.41084.41084,0,0,1-.11434-.10234.06935.06935,0,0,1,.01826-.09892.07428.07428,0,0,1,.10147-.00205.63084.63084,0,0,1,.07877.07078A.17564.17564,0,0,1,3.82264,3.67594Z"></path><path xmlns="http://www.w3.org/2000/svg" d="M1.1285,3.1105a.0795.0795,0,0,1,.06445.12641.38071.38071,0,0,1-.09513.09186A.07982.07982,0,0,1,.9774,3.258.203.203,0,0,1,1.1285,3.1105Z"></path><path xmlns="http://www.w3.org/2000/svg" d="M2.80718.99639A.84253.84253,0,0,1,2.85162.87716.07955.07955,0,0,1,2.95527.84253a.08249.08249,0,0,1,.04423.10415c-.00758.02813-.015.05637-.02457.08387a.08212.08212,0,0,1-.09679.05781A.09974.09974,0,0,1,2.80718.99639Z"></path><path xmlns="http://www.w3.org/2000/svg" d="M.92686,1.75567a.28172.28172,0,0,1,.0434.00514.07715.07715,0,0,1,.06583.07784A.072.072,0,0,1,.97473,1.919a.29155.29155,0,0,1-.11317-.00557A.07709.07709,0,0,1,.80588,1.816C.81711,1.77088.8534,1.7506.92686,1.75567Z"></path><path xmlns="http://www.w3.org/2000/svg" d="M3.035,4.17278a.26641.26641,0,0,1-.0598.0649.07058.07058,0,0,1-.09077-.02294.14725.14725,0,0,1-.03031-.14233.116.116,0,0,1,.06731-.05809.066.066,0,0,1,.08146.04386A1.02355,1.02355,0,0,1,3.035,4.17278Z"></path><path xmlns="http://www.w3.org/2000/svg" d="M2.22989,2.38324c-.02374.02683-.03917.05869-.06288.06706a.10164.10164,0,0,1-.08368-.01255.23948.23948,0,0,1-.0621-.08939.077.077,0,0,1,.03644-.099.07554.07554,0,0,1,.10025.01835A1.20191,1.20191,0,0,1,2.22989,2.38324Z"></path><path xmlns="http://www.w3.org/2000/svg" d="M1.50688,1.63349c.06894.00067.12046.04235.11864.096a.0816.0816,0,0,1-.08543.07828c-.07366-.00046-.12226-.03627-.12271-.09043A.08256.08256,0,0,1,1.50688,1.63349Z"></path><path xmlns="http://www.w3.org/2000/svg" d="M4.01443,3.01581c.06865.00387.12271.05151.11846.10438a.08345.08345,0,0,1-.09335.075.11444.11444,0,0,1-.1136-.10025A.08016.08016,0,0,1,4.01443,3.01581Z"></path><path xmlns="http://www.w3.org/2000/svg" d="M2.454,2.29981a.11766.11766,0,0,1,.11863-.09945.08168.08168,0,0,1,.07879.08486.1254.1254,0,0,1-.1175.10293A.08252.08252,0,0,1,2.454,2.29981Z"></path><circle xmlns="http://www.w3.org/2000/svg" cx="2.43424" cy="2.78905" r="0.0831" transform="translate(-0.44014 5.1219) rotate(-87.94878)"></circle><circle xmlns="http://www.w3.org/2000/svg" cx="2.21377" cy="2.54924" r="0.08353" transform="translate(-0.00983 0.00857) rotate(-0.22141)"></circle><circle xmlns="http://www.w3.org/2000/svg" cx="2.16043" cy="1.86976" r="0.08378" transform="translate(0.25739 4.00092) rotate(-89.11123)"></circle><circle xmlns="http://www.w3.org/2000/svg" cx="2.28189" cy="1.44231" r="0.08379" transform="translate(-0.00269 0.00427) rotate(-0.10711)"></circle><circle xmlns="http://www.w3.org/2000/svg" cx="1.43728" cy="3.18269" r="0.08377" transform="translate(-1.76775 4.56944) rotate(-89.09359)"></circle><circle xmlns="http://www.w3.org/2000/svg" cx="2.37346" cy="1.82991" r="0.08326" transform="translate(0.47827 4.15157) rotate(-88.4068)"></circle><circle xmlns="http://www.w3.org/2000/svg" cx="3.39872" cy="1.33675" r="0.08394" transform="translate(-0.04802 0.12919) rotate(-2.1624)"></circle><circle xmlns="http://www.w3.org/2000/svg" cx="3.38579" cy="1.60248" r="0.08348" transform="translate(1.53811 4.86094) rotate(-85.77303)"></circle><circle xmlns="http://www.w3.org/2000/svg" cx="1.96406" cy="1.49335" r="0.08323" transform="translate(0.38244 3.38705) rotate(-87.3785)"></circle><circle xmlns="http://www.w3.org/2000/svg" cx="2.69335" cy="3.36185" r="0.08336" transform="translate(-0.74981 5.95045) rotate(-88.23624)"></circle><circle xmlns="http://www.w3.org/2000/svg" cx="4.20491" cy="1.96277" r="0.08358" transform="translate(2.07557 6.08584) rotate(-87.70837)"></circle><circle xmlns="http://www.w3.org/2000/svg" cx="3.09992" cy="3.18195" r="0.08358" transform="translate(-0.04731 0.04678) rotate(-0.85815)"></circle><circle xmlns="http://www.w3.org/2000/svg" cx="2.18069" cy="3.44856" r="0.0837"></circle><circle xmlns="http://www.w3.org/2000/svg" cx="1.87418" cy="1.99094" r="0.08345" transform="translate(-0.06653 0.0648) rotate(-1.94617)"></circle><circle xmlns="http://www.w3.org/2000/svg" cx="1.42798" cy="2.23004" r="0.08366" transform="translate(-0.02973 0.01932) rotate(-0.76711)"></circle><circle xmlns="http://www.w3.org/2000/svg" cx="3.37245" cy="2.08312" r="0.08337" transform="matrix(0.99999, -0.00499, 0.00499, 0.99999, -0.01035, 0.01685)"></circle><circle xmlns="http://www.w3.org/2000/svg" cx="2.9004" cy="2.70931" r="0.08356" transform="translate(-0.03056 0.0331) rotate(-0.65034)"></circle><circle xmlns="http://www.w3.org/2000/svg" cx="3.16656" cy="1.2441" r="0.08337" transform="translate(1.9074 4.40471) rotate(-89.72735)"></circle><circle xmlns="http://www.w3.org/2000/svg" cx="1.88146" cy="2.86206" r="0.08311" transform="translate(-1.00051 4.71289) rotate(-89.38877)"></circle><circle xmlns="http://www.w3.org/2000/svg" cx="3.67244" cy="2.02399" r="0.08335" transform="translate(1.57391 5.65435) rotate(-88.83042)"></circle><circle xmlns="http://www.w3.org/2000/svg" cx="2.58024" cy="3.0883" r="0.08351" transform="translate(-0.52427 5.64901) rotate(-89.63866)"></circle><circle xmlns="http://www.w3.org/2000/svg" cx="2.61449" cy="1.26969" r="0.0833" transform="translate(1.23161 3.82611) rotate(-87.49184)"></circle><circle xmlns="http://www.w3.org/2000/svg" cx="1.40163" cy="3.66067" r="0.08311" transform="translate(-2.2726 5.02638) rotate(-89.43882)"></circle><circle xmlns="http://www.w3.org/2000/svg" cx="2.64013" cy="3.9875" r="0.08373" transform="translate(-1.38535 6.56935) rotate(-89.16655)"></circle><circle xmlns="http://www.w3.org/2000/svg" cx="2.51387" cy="0.83732" r="0.08328" transform="translate(-0.01676 0.05211) rotate(-1.18361)"></circle><circle xmlns="http://www.w3.org/2000/svg" cx="2.80887" cy="2.08913" r="0.08384" transform="translate(-0.04589 0.06315) rotate(-1.27774)"></circle><circle xmlns="http://www.w3.org/2000/svg" cx="1.75508" cy="2.5555" r="0.0838" transform="translate(-0.00374 0.00257) rotate(-0.08385)"></circle><circle xmlns="http://www.w3.org/2000/svg" cx="2.34079" cy="2.13628" r="0.08352" transform="translate(0.15891 4.43462) rotate(-88.8736)"></circle><circle xmlns="http://www.w3.org/2000/svg" cx="1.8089" cy="2.20983" r="0.08331" transform="translate(-0.42527 3.98857) rotate(-89.22232)"></circle><circle xmlns="http://www.w3.org/2000/svg" cx="3.33272" cy="0.89709" r="0.08323" transform="translate(2.37872 4.21397) rotate(-89.0193)"></circle><circle xmlns="http://www.w3.org/2000/svg" cx="3.43811" cy="1.90946" r="0.0834" transform="translate(-0.03585 0.06603) rotate(-1.09461)"></circle><circle xmlns="http://www.w3.org/2000/svg" cx="4.21193" cy="2.66197" r="0.08344" transform="translate(1.48225 6.83034) rotate(-89.07419)"></circle><circle xmlns="http://www.w3.org/2000/svg" cx="1.95425" cy="1.69004" r="0.08311" transform="translate(0.26107 3.64157) rotate(-89.90803)"></circle><circle xmlns="http://www.w3.org/2000/svg" cx="3.35292" cy="2.88841" r="0.08351" transform="translate(0.45318 6.23154) rotate(-89.80611)"></circle><circle xmlns="http://www.w3.org/2000/svg" cx="3.09987" cy="2.82753" r="0.08302" transform="translate(0.25425 5.91081) rotate(-89.6649)"></circle><circle xmlns="http://www.w3.org/2000/svg" cx="3.84553" cy="1.45679" r="0.08325" transform="translate(-0.02203 0.05954) rotate(-0.88451)"></circle><circle xmlns="http://www.w3.org/2000/svg" cx="3.24016" cy="3.0349" r="0.08299" transform="translate(-0.02772 0.02987) rotate(-0.52594)"></circle><circle xmlns="http://www.w3.org/2000/svg" cx="3.67229" cy="3.0416" r="0.08342" transform="translate(0.604 6.69162) rotate(-89.58245)"></circle><circle xmlns="http://www.w3.org/2000/svg" cx="2.78682" cy="1.82376" r="0.08296" transform="translate(-0.02252 0.03489) rotate(-0.71445)"></circle><circle xmlns="http://www.w3.org/2000/svg" cx="2.50045" cy="1.96329" r="0.08304" transform="translate(-0.03878 0.05042) rotate(-1.14635)"></circle><circle xmlns="http://www.w3.org/2000/svg" cx="2.25008" cy="3.01536" r="0.08326"></circle></g><g id="SvgjsG3129" featureKey="sloganFeature-0" transform="matrix(0.5130810269467937,0,0,0.5130810269467937,165,22.229361671587796)" fill="url(#SvgjsLinearGradient3136)"><path d="M2.88 6.300000000000001 l-2.3 0 l0 3.94 l2.3 0 l0 0.6 l-2.3 0 l0 8.56 l2.3 0 l0 0.6 l-2.88 0 l0 -14.3 l2.88 0 l0 0.6 z M12.04 5.699999999999999 l0.58 0 l0 14.3 l-0.58 0 l0 -13 l-3.56 7.16 l-0.66 0 l-3.56 -7.16 l0 13 l-0.58 0 l0 -14.3 l0.58 0 l3.88 7.8 z M14.1 5.699999999999999 c2.64 0 4.78 2.18 4.78 4.88 c0 2.68 -2.14 4.88 -4.78 4.88 l-0.1 0 l0 4.54 l-0.58 0 l0 -14.3 l0.68 0 z M14.1 14.879999999999999 c2.32 0 4.2 -1.94 4.2 -4.3 c0 -2.38 -1.88 -4.3 -4.2 -4.3 l-0.1 0 l0 8.6 l0.1 0 z M26.62 6.279999999999999 c-3.62 0 -6.54 2.94 -6.54 6.56 s2.92 6.56 6.54 6.56 s6.58 -2.94 6.58 -6.56 s-2.96 -6.56 -6.58 -6.56 z M26.62 5.699999999999999 c3.96 0 7.16 3.2 7.16 7.14 s-3.2 7.16 -7.16 7.16 c-3.94 0 -7.14 -3.22 -7.14 -7.16 s3.2 -7.14 7.14 -7.14 z M44.099999999999994 5.699999999999999 l0.6 0 l-3.56 14.3 l-0.7 0 l-1.6 -6.44 l-1.6 6.44 l-0.7 0 l-3.56 -14.3 l0.6 0 l3.3 13.3 l1.66 -6.66 l-1.66 -6.64 l0.6 0 l1.36 5.44 l1.36 -5.44 l0.6 0 l-1.66 6.64 l1.66 6.66 z M48.38 6.300000000000001 l-2.3 0 l0 3.94 l2.3 0 l0 0.6 l-2.3 0 l0 8.56 l2.3 0 l0 0.6 l-2.88 0 l0 -14.3 l2.88 0 l0 0.6 z M54.64 10.58 c0 1.86 -1.02 3.48 -2.54 4.3 l2.54 5.12 l-0.66 0 l-2.42 -4.88 c-0.52 0.22 -1.1 0.34 -1.7 0.34 l-0.1 0 l0 4.54 l-0.58 0 l0 -14.3 l0.68 0 c2.64 0 4.78 2.18 4.78 4.88 z M49.76 6.279999999999999 l0 8.6 l0.1 0 c2.32 0 4.2 -1.94 4.2 -4.3 c0 -2.38 -1.88 -4.3 -4.2 -4.3 l-0.1 0 z M56.019999999999996 5.699999999999999 l0 14.3 l-0.58 0 l0 -14.3 l0.58 0 z M63.38 5.699999999999999 l0.58 0 l0 14.3 l-0.58 0 l0 -2.58 c-0.1 -4.58 -2.44 -8.6 -5.98 -11.02 l0 13.6 l-0.58 0 l0 -14.3 l0.58 0 c2.86 1.82 5 4.64 5.98 7.98 l0 -7.98 z M71.32000000000001 10.22 l1.16 0 l0 9.78 l-0.58 0 c-3.94 0 -7.14 -3.22 -7.14 -7.16 s3.2 -7.14 7.14 -7.14 l0.58 0 l0 0.58 l-0.58 0 c-3.62 0 -6.56 2.94 -6.56 6.56 s2.94 6.56 6.56 6.56 l0 -8.58 l-0.58 0 l0 -0.6 z M77.86 5.699999999999999 l0 14.3 l-0.58 0 l0 -14.3 l0.58 0 z M79.24 5.699999999999999 c3.94 0 7.14 3.2 7.14 7.14 s-3.2 7.16 -7.14 7.16 l-0.58 0 l0 -14.3 l0.58 0 z M79.24 19.4 c3.62 0 6.56 -2.94 6.56 -6.56 s-2.94 -6.56 -6.56 -6.56 l0 13.12 z M90.05999999999999 6.300000000000001 l-2.3 0 l0 3.94 l2.3 0 l0 0.6 l-2.3 0 l0 8.56 l2.3 0 l0 0.6 l-2.88 0 l0 -14.3 l2.88 0 l0 0.6 z M98.06 20 l-0.56 -2.26 l-5.48 0 l-0.56 2.26 l-0.6 0 l3.54 -14.3 l0.72 0 l3.54 14.3 l-0.6 0 z M92.16 17.14 l5.2 0 l-2.6 -10.44 z M102.46 20.28 c-1.18 0 -2.3 -0.56 -3 -1.52 l0.46 -0.34 c0.6 0.8 1.54 1.28 2.54 1.28 c1.7 0 3.1 -1.4 3.1 -3.12 c0 -1.78 -1.36 -3.08 -2.68 -4.36 c-1.28 -1.2 -2.58 -2.46 -2.58 -4.12 c0 -1.48 1.22 -2.7 2.7 -2.7 c0.86 0 1.68 0.42 2.2 1.12 l-0.48 0.34 c-0.4 -0.54 -1.04 -0.88 -1.72 -0.88 c-1.16 0 -2.12 0.96 -2.12 2.12 c0 1.4 1.16 2.52 2.4 3.7 c1.4 1.36 2.86 2.76 2.86 4.78 c0 2.04 -1.66 3.7 -3.68 3.7 z"></path></g><g id="SvgjsG3130" featureKey="nameLeftFeature-0" transform="matrix(1.1463430576665348,0,0,1.1463430576665348,44.26634039116462,-7.772205624872485)" fill="url(#SvgjsLinearGradient3140)"><path d="M0.64 20 l0 -0.3 l1.72 0 l0 -12.62 l-1.72 0 l0 -0.3 l10.24 0 s-0.42 1.58 -0.58 3.74 l-0.3 0 l0 -1.98 c0 -1.16 -0.28 -1.46 -1.12 -1.46 l-4.08 0 l0 6.24 l3.12 0 l0 -1.76 l0.3 0 l0 4 l-0.3 0 l0 -1.94 l-3.12 0 l0 6.08 l4.06 0 c1.18 0 1.4 -1.24 1.76 -3.66 l0.32 0 s-0.3 1.82 -0.3 3.96 l-10 0 z M12.459999999999999 20 l0 -0.3 l0.6 0 c0.88 0 1.2 -0.44 1.2 -1.2 l0 -10.36 l-0.1 -0.14 c-0.4 -0.56 -0.7 -0.92 -1.54 -0.92 l-0.36 0 l0 -0.3 l3.96 0 l7.22 9.6 l0 -8.1 c0 -0.76 -0.32 -1.2 -1.2 -1.2 l-0.6 0 l0 -0.3 l3.9 0 l0 0.3 l-0.62 0 c-0.88 0 -1.18 0.44 -1.18 1.2 l0 11.8 l-0.54 0 l-8.64 -11.54 l0 9.96 c0 0.76 0.3 1.2 1.18 1.2 l0.62 0 l0 0.3 l-3.9 0 z M29.22 20 l0 -0.3 l1.72 0 l0 -12.62 l-2.44 0 c-1.02 0 -1.44 0.54 -1.6 2 l-0.16 1.44 l-0.3 0 s0.12 -1.8 0.12 -2.48 l0 -1.26 l11.22 0 l0 1.26 c0 0.68 0.08 2.48 0.08 2.48 l-0.3 0 l-0.14 -1.48 c-0.12 -1.36 -0.5 -1.96 -1.54 -1.96 l-2.5 0 l0 12.62 l1.74 0 l0 0.3 l-5.9 0 z M38.919999999999995 20 l0 -0.3 l1.74 0 l0 -12.62 l-1.74 0 l0 -0.3 l5.64 0 c3.72 0 5 1.38 5 3.36 c0 1.58 -1.02 2.84 -3.92 3.24 l0 0.04 c1.82 0.3 3.26 1.24 3.5 3.32 c0.16 1.48 0.1 2.88 0.94 2.88 c0.52 0 0.86 -0.6 0.86 -1.36 l0.3 0 c-0.02 1.22 -0.6 1.84 -1.82 1.84 c-2.44 0 -2.84 -2.14 -2.94 -3.52 c-0.08 -1.08 -0.22 -3.02 -1.74 -3.02 l-1.64 0 l0 6.14 l1.72 0 l0 0.3 l-5.9 0 z M43.099999999999994 13.26 l1.6 0 c1.74 0 2.28 -1 2.28 -3 c0 -2.06 -0.6 -3.18 -2.38 -3.18 l-1.5 0 l0 6.18 z M51.98 20 l0 -0.3 l1.72 0 l0 -12.62 l-1.72 0 l0 -0.3 l10.24 0 s-0.42 1.58 -0.58 3.74 l-0.3 0 l0 -1.98 c0 -1.16 -0.28 -1.46 -1.12 -1.46 l-4.08 0 l0 6.24 l3.12 0 l0 -1.76 l0.3 0 l0 4 l-0.3 0 l0 -1.94 l-3.12 0 l0 6.08 l4.06 0 c1.18 0 1.4 -1.24 1.76 -3.66 l0.32 0 s-0.3 1.82 -0.3 3.96 l-10 0 z M63.76 20 l0 -0.3 l1.72 0 l0 -12.62 l-1.72 0 l0 -0.3 l5.54 0 c4.08 0 5.36 1.68 5.36 3.78 c0 2.42 -1.86 4 -4.74 4 c-0.5 0 -0.74 -0.04 -0.74 -0.04 l0 -0.3 s0.28 0.04 0.6 0.04 c1.68 0 2.3 -1.52 2.3 -3.64 c0 -2.24 -0.6 -3.54 -2.8 -3.54 l-1.36 0 l0 12.62 l1.92 0 l0 0.3 l-6.08 0 z M75.78 20 l0 -0.3 l1.74 0 l0 -12.62 l-1.74 0 l0 -0.3 l5.64 0 c3.72 0 5 1.38 5 3.36 c0 1.58 -1.02 2.84 -3.92 3.24 l0 0.04 c1.82 0.3 3.26 1.24 3.5 3.32 c0.16 1.48 0.1 2.88 0.94 2.88 c0.52 0 0.86 -0.6 0.86 -1.36 l0.3 0 c-0.02 1.22 -0.6 1.84 -1.82 1.84 c-2.44 0 -2.84 -2.14 -2.94 -3.52 c-0.08 -1.08 -0.22 -3.02 -1.74 -3.02 l-1.64 0 l0 6.14 l1.72 0 l0 0.3 l-5.9 0 z M79.96 13.26 l1.6 0 c1.74 0 2.28 -1 2.28 -3 c0 -2.06 -0.6 -3.18 -2.38 -3.18 l-1.5 0 l0 6.18 z M88.84 20 l0 -0.3 l1.72 0 l0 -12.62 l-1.72 0 l0 -0.3 l10.24 0 s-0.42 1.58 -0.58 3.74 l-0.3 0 l0 -1.98 c0 -1.16 -0.28 -1.46 -1.12 -1.46 l-4.08 0 l0 6.24 l3.12 0 l0 -1.76 l0.3 0 l0 4 l-0.3 0 l0 -1.94 l-3.12 0 l0 6.08 l4.06 0 c1.18 0 1.4 -1.24 1.76 -3.66 l0.32 0 s-0.3 1.82 -0.3 3.96 l-10 0 z M100.66000000000001 20 l0 -0.3 l0.6 0 c0.88 0 1.2 -0.44 1.2 -1.2 l0 -10.36 l-0.1 -0.14 c-0.4 -0.56 -0.7 -0.92 -1.54 -0.92 l-0.36 0 l0 -0.3 l3.96 0 l7.22 9.6 l0 -8.1 c0 -0.76 -0.32 -1.2 -1.2 -1.2 l-0.6 0 l0 -0.3 l3.9 0 l0 0.3 l-0.62 0 c-0.88 0 -1.18 0.44 -1.18 1.2 l0 11.8 l-0.54 0 l-8.64 -11.54 l0 9.96 c0 0.76 0.3 1.2 1.18 1.2 l0.62 0 l0 0.3 l-3.9 0 z M114.86 20 l0 -0.3 l1.72 0 l0 -12.62 l-1.72 0 l0 -0.3 l10.24 0 s-0.42 1.58 -0.58 3.74 l-0.3 0 l0 -1.98 c0 -1.16 -0.28 -1.46 -1.12 -1.46 l-4.08 0 l0 6.24 l3.12 0 l0 -1.76 l0.3 0 l0 4 l-0.3 0 l0 -1.94 l-3.12 0 l0 6.08 l4.06 0 c1.18 0 1.4 -1.24 1.76 -3.66 l0.32 0 s-0.3 1.82 -0.3 3.96 l-10 0 z"></path></g><g id="SvgjsG3131" featureKey="nameRightFeature-0" transform="matrix(1.1310585407905882,0,0,1.1310585407905882,190.57019789472557,-7.510228020506158)" fill="url(#SvgjsLinearGradient3144)"><path d="M2.12 14.440000000000001 l0 -7.36 l-1.74 0 l0 -0.3 l5.94 0 l0 0.3 l-1.74 0 l0 7.36 c0 3.84 0.82 5.4 3.38 5.4 c3.12 0 4.22 -2.22 4.22 -4.9 l0 -6.66 c0 -0.76 -0.32 -1.2 -1.2 -1.2 l-0.6 0 l0 -0.3 l3.9 0 l0 0.3 l-0.62 0 c-0.88 0 -1.18 0.44 -1.18 1.2 l0 6.66 c0 2.9 -1.24 5.2 -4.52 5.2 c-4.52 0 -5.84 -2.1 -5.84 -5.7 z M15.2 20 l0 -0.3 l1.74 0 l0 -12.62 l-1.74 0 l0 -0.3 l5.64 0 c3.72 0 5 1.38 5 3.36 c0 1.58 -1.02 2.84 -3.92 3.24 l0 0.04 c1.82 0.3 3.26 1.24 3.5 3.32 c0.16 1.48 0.1 2.88 0.94 2.88 c0.52 0 0.86 -0.6 0.86 -1.36 l0.3 0 c-0.02 1.22 -0.6 1.84 -1.82 1.84 c-2.44 0 -2.84 -2.14 -2.94 -3.52 c-0.08 -1.08 -0.22 -3.02 -1.74 -3.02 l-1.64 0 l0 6.14 l1.72 0 l0 0.3 l-5.9 0 z M19.38 13.26 l1.6 0 c1.74 0 2.28 -1 2.28 -3 c0 -2.06 -0.6 -3.18 -2.38 -3.18 l-1.5 0 l0 6.18 z M29.1 20 l-0.26 0 s0.14 -1.38 0.14 -2.62 l0 -1.7 l0.3 0 l0 1.12 c0 1.6 1.6 3.04 4.04 3.04 c1.84 0 3.26 -0.8 3.26 -2.34 c0 -3.42 -7.78 -1.92 -7.78 -6.9 c0 -2.3 1.46 -3.96 4.28 -3.96 c1.46 0 2.32 0.48 2.82 0.92 c0.56 -0.02 0.82 -0.24 1.04 -0.78 l0.26 0 s-0.38 1.94 -0.38 2.8 l0 1.22 l-0.3 0 l0 -1.18 c0 -1.5 -1.22 -2.68 -3.46 -2.68 c-2.06 0 -3.22 0.94 -3.22 2.42 c0 3.4 7.8 1.78 7.8 6.88 c0 2.06 -1.44 3.9 -4.32 3.9 c-1.52 0 -2.54 -0.5 -3.16 -1.02 c-0.72 0 -0.92 0.38 -1.06 0.88 z M39.300000000000004 20 l0 -0.3 l0.6 0 c0.88 0 1.2 -0.44 1.2 -1.2 l0 -10.36 l-0.1 -0.14 c-0.4 -0.56 -0.7 -0.92 -1.54 -0.92 l-0.36 0 l0 -0.3 l3.96 0 l7.22 9.6 l0 -8.1 c0 -0.76 -0.32 -1.2 -1.2 -1.2 l-0.6 0 l0 -0.3 l3.9 0 l0 0.3 l-0.62 0 c-0.88 0 -1.18 0.44 -1.18 1.2 l0 11.8 l-0.54 0 l-8.64 -11.54 l0 9.96 c0 0.76 0.3 1.2 1.18 1.2 l0.62 0 l0 0.3 l-3.9 0 z M53.50000000000001 20 l0 -0.3 l1.72 0 l0 -12.62 l-1.72 0 l0 -0.3 l5.9 0 l0 0.3 l-1.74 0 l0 12.62 l1.74 0 l0 0.3 l-5.9 0 z M72.04 20 l-0.3 0 c-0.06 -0.12 -0.3 -0.76 -0.8 -0.92 c-0.68 0.56 -1.78 1.06 -3.78 1.06 c-3.68 0 -6.22 -2.62 -6.22 -6.76 c0 -4.04 2.48 -6.74 6.48 -6.74 c1.24 0 2.34 0.38 3.12 1.1 c0.58 0 0.88 -0.22 1.16 -0.96 l0.26 0 c-0.1 0.36 -0.38 2.06 -0.38 2.88 l0 1.24 l-0.3 0 l0 -0.76 c0 -1.9 -1.6 -3.2 -3.86 -3.2 c-3 0 -3.86 2.82 -3.86 6.58 c0 3.9 1 6.32 3.58 6.32 c1.32 0 2.68 -0.6 2.68 -2.2 l0 -2.8 l-1.92 0 l0 -0.3 l5.32 0 l0 0.3 l-1.18 0 l0 5.16 z M74.16000000000001 20 l0 -0.3 l1.72 0 l0 -12.62 l-1.72 0 l0 -0.3 l5.9 0 l0 0.3 l-1.74 0 l0 6.12 l6.56 0 l0 -6.12 l-1.72 0 l0 -0.3 l5.9 0 l0 0.3 l-1.74 0 l0 12.62 l1.74 0 l0 0.3 l-5.9 0 l0 -0.3 l1.72 0 l0 -6.2 l-6.56 0 l0 6.2 l1.74 0 l0 0.3 l-5.9 0 z M92.88000000000001 20 l0 -0.3 l1.72 0 l0 -12.62 l-2.44 0 c-1.02 0 -1.44 0.54 -1.6 2 l-0.16 1.44 l-0.3 0 s0.12 -1.8 0.12 -2.48 l0 -1.26 l11.22 0 l0 1.26 c0 0.68 0.08 2.48 0.08 2.48 l-0.3 0 l-0.14 -1.48 c-0.12 -1.36 -0.5 -1.96 -1.54 -1.96 l-2.5 0 l0 12.62 l1.74 0 l0 0.3 l-5.9 0 z M102.92 18.76 c0 -0.72 0.62 -1.34 1.34 -1.34 c0.74 0 1.34 0.62 1.34 1.34 s-0.6 1.34 -1.34 1.34 c-0.72 0 -1.34 -0.62 -1.34 -1.34 z M106.14 20 l0 -0.3 l0.4 0 c0.62 0 0.96 -0.3 1.3 -1.18 l4.52 -11.8 l0.54 0 l5.3 12.98 l0.98 0 l0 0.3 l-4.94 0 l0 -0.3 l1.4 0 l-1.78 -4.34 l-4.5 0 l-1.2 3.16 c-0.28 0.72 0.16 1.18 1.08 1.18 l0.6 0 l0 0.3 l-3.7 0 z M109.48 15.059999999999999 l4.26 0 l-2.2 -5.38 z M122.10000000000001 20 l0 -0.3 l1.72 0 l0 -12.62 l-2.44 0 c-1.02 0 -1.44 0.54 -1.6 2 l-0.16 1.44 l-0.3 0 s0.12 -1.8 0.12 -2.48 l0 -1.26 l11.22 0 l0 1.26 c0 0.68 0.08 2.48 0.08 2.48 l-0.3 0 l-0.14 -1.48 c-0.12 -1.36 -0.5 -1.96 -1.54 -1.96 l-2.5 0 l0 12.62 l1.74 0 l0 0.3 l-5.9 0 z"></path></g>
			</g>
		</svg>
	